<?xml version="1.0" encoding="UTF-8"?>
<svg xmlns="http://www.w3.org/2000/svg" xmlns:xlink="http://www.w3.org/1999/xlink" viewBox="0 0 50 50" width="50px" height="50px">
<g id="surface138395586">
<path style=" stroke:none;fill-rule:nonzero;fill:rgb(0%,0%,0%);fill-opacity:1;" d="M 6.148438 6.800781 C 3.640625 6.800781 1.601562 8.839844 1.601562 11.351562 L 1.601562 38.648438 C 1.601562 41.160156 3.640625 43.199219 6.148438 43.199219 L 43.851562 43.199219 C 46.359375 43.199219 48.398438 41.160156 48.398438 38.648438 L 48.398438 11.351562 C 48.398438 8.839844 46.359375 6.800781 43.851562 6.800781 Z M 6.148438 8.101562 L 43.851562 8.101562 C 45.644531 8.101562 47.101562 9.558594 47.101562 11.351562 L 47.101562 38.648438 C 47.101562 40.441406 45.644531 41.898438 43.851562 41.898438 L 6.148438 41.898438 C 4.355469 41.898438 2.898438 40.441406 2.898438 38.648438 L 2.898438 11.351562 C 2.898438 9.558594 4.355469 8.101562 6.148438 8.101562 Z M 28.640625 19.582031 C 26.203125 19.582031 24.25 20.902344 24.25 23.132812 C 24.25 24.597656 25.445312 25.414062 26.460938 25.953125 C 27.363281 26.425781 27.832031 26.714844 27.832031 27.238281 C 27.832031 27.859375 27.164062 28.140625 26.433594 28.132812 C 25.414062 28.132812 24.480469 27.835938 23.84375 27.46875 L 22.964844 29.660156 C 23.484375 30.011719 24.539062 30.421875 26.175781 30.421875 C 28.503906 30.421875 30.660156 29.3125 30.660156 26.75 C 30.660156 25.503906 29.820312 24.644531 28.546875 23.988281 C 27.75 23.535156 27.054688 23.203125 27.054688 22.695312 C 27.054688 22.246094 27.5 21.867188 28.445312 21.867188 C 29.324219 21.84375 30.109375 22.132812 30.457031 22.3125 L 31.273438 20.085938 C 30.78125 19.847656 30.03125 19.582031 28.640625 19.582031 Z M 9.398438 19.800781 L 10.734375 30.199219 L 13.921875 30.199219 L 19.417969 19.800781 L 16.375 19.800781 C 16.375 19.800781 13.324219 26.386719 12.867188 27.5625 L 12.835938 27.5625 C 12.75 26.320312 12.207031 19.800781 12.207031 19.800781 Z M 20.578125 19.800781 L 18.546875 30.199219 L 21.261719 30.199219 L 23.292969 19.800781 Z M 35.863281 19.800781 L 30.71875 30.199219 L 33.65625 30.199219 L 34.730469 27.753906 L 37.585938 27.753906 L 37.710938 30.199219 L 40.601562 30.199219 L 39.441406 19.800781 Z M 37.203125 21.761719 L 37.234375 21.761719 C 37.285156 22.40625 37.488281 25.765625 37.488281 25.765625 L 35.507812 25.765625 C 35.507812 25.765625 36.925781 22.40625 37.203125 21.761719 Z M 37.203125 21.761719 "/>
</g>
</svg>
